<svg version="1.1" xmlns="http://www.w3.org/2000/svg" x="0" y="0" width="473" height="11" viewBox="-0.2 -0.3 473 11" overflow="visible" xml:space="preserve"><path fill="none" stroke="#221F1F" stroke-width="2" stroke-miterlimit="10" d="M471.8 8.7c-6.6 0-6.6-7.2-13.1-7.2-6.6 0-6.6 7.2-13.1 7.2-6.6 0-6.6-7.2-13.1-7.2-6.6 0-6.6 7.2-13.1 7.2s-6.6-7.2-13.1-7.2c-6.6 0-6.6 7.2-13.1 7.2s-6.6-7.2-13.1-7.2c-6.6 0-6.6 7.2-13.1 7.2s-6.6-7.2-13.1-7.2-6.6 7.2-13.1 7.2-6.6-7.2-13.1-7.2c-6.6 0-6.6 7.2-13.1 7.2s-6.6-7.2-13.1-7.2c-6.6 0-6.6 7.2-13.1 7.2s-6.6-7.2-13.1-7.2-6.6 7.2-13.1 7.2c-6.6 0-6.6-7.2-13.1-7.2s-6.6 7.2-13.1 7.2c-6.6 0-6.6-7.2-13.1-7.2s-6.6 7.2-13.1 7.2-6.6-7.2-13.1-7.2c-6.6 0-6.6 7.2-13.1 7.2-6.6 0-6.6-7.2-13.1-7.2-6.6 0-6.6 7.2-13.1 7.2s-6.6-7.2-13.1-7.2c-6.6 0-6.6 7.2-13.1 7.2s-6.6-7.2-13.1-7.2c-6.6 0-6.6 7.2-13.1 7.2-6.6 0-6.6-7.2-13.1-7.2s-6.6 7.2-13.1 7.2c-6.6 0-6.6-7.2-13.1-7.2-6.7 0-6.7 7.2-13.3 7.2-6.6 0-6.6-7.2-13.1-7.2s-6.6 7.2-13.1 7.2c-6.6 0-6.6-7.2-13.1-7.2S6.6 8.7 0 8.7"/></svg>