<svg xmlns="http://www.w3.org/2000/svg" xmlns:xlink="http://www.w3.org/1999/xlink" viewBox="815 2969 24 22"><defs><style>.a{clip-path:url(#b);}.b{fill:#848484;}.c{fill:none;}</style><clipPath id="b"><rect x="815" y="2969" width="24" height="22"/></clipPath></defs><g id="a" class="a"><rect class="c" x="815" y="2969" width="24" height="22"/><g transform="translate(814.938 2949.084)"><g transform="translate(0 21.727)"><path class="b" d="M45.3,21.727H33.727A2.777,2.777,0,0,0,31.334,23.1h1.2a1.834,1.834,0,0,1,1.194-.448,1.855,1.855,0,0,1,1.853,1.852V40.453a.463.463,0,0,0,.463.463H47.617a.464.464,0,0,0,.464-.463V24.5A2.782,2.782,0,0,0,45.3,21.727Zm0,.926a1.855,1.855,0,0,1,1.853,1.852V34.781H36.506V24.5a2.768,2.768,0,0,0-.713-1.852H45.3ZM36.506,35.3H47.155v.926H36.506Zm0,4.688V38.6H47.155v1.39Z" transform="translate(-27.476 -21.727)"/><path class="b" d="M30.985,61.9H29.133V55.683h-.926v6.682a.463.463,0,0,0,.463.463h2.314a.463.463,0,1,0,0-.926Z" transform="translate(-24.734 -51.502)"/><path class="b" d="M172.831,34.531a1.2,1.2,0,0,0-.976.506h-1.37a3.226,3.226,0,0,1,.077.694v.695h1.293a1.2,1.2,0,1,0,.976-1.9Z" transform="translate(-149.493 -32.955)"/><path class="b" d="M2.177,35.044a1.2,1.2,0,1,0,0,1.389H7.641v-.7a1.374,1.374,0,0,0-.193-.694Z" transform="translate(0 -32.96)"/></g></g></g></svg>
