<svg xmlns="http://www.w3.org/2000/svg" xmlns:xlink="http://www.w3.org/1999/xlink" viewBox="814 2928 24 22"><defs><style>.a{clip-path:url(#b);}.b{fill:none;}.c{fill:#848484;}.d{fill:none;}</style><clipPath id="b"><rect x="814" y="2928" width="24" height="22"/></clipPath></defs><g id="a" class="a"><rect class="d" x="814" y="2928" width="24" height="22"/><g transform="translate(816 2929.1)"><path class="b" d="M17.047,182.4a3.96,3.96,0,0,0,3.314,6.129h.931a.376.376,0,0,1,.349.233,7.1,7.1,0,0,0,13.64-2.75V182.4H17.047Zm4.077,5.231a.38.38,0,0,1-.293.135h-.479a3.2,3.2,0,0,1-2.978-4.365.379.379,0,0,1,.354-.242H20.7a.383.383,0,0,1,.382.382v2.471a7.274,7.274,0,0,0,.121,1.308A.366.366,0,0,1,21.124,187.631Z" transform="translate(-15.637 -174.007)"/><path class="b" d="M51.411,215H49.088a2.521,2.521,0,0,0-.088.647,2.441,2.441,0,0,0,2.439,2.439h.033a7.954,7.954,0,0,1-.065-1V215Z" transform="translate(-46.72 -205.089)"/><path class="c" d="M20.025,166H1.21a.369.369,0,0,0-.307.158,4.673,4.673,0,0,0-.9,2.774,4.725,4.725,0,0,0,4.719,4.719H5.4a7.861,7.861,0,0,0,15-3.281v-3.993A.382.382,0,0,0,20.025,166Zm-.382,4.375A7.1,7.1,0,0,1,6,173.125a.381.381,0,0,0-.349-.233H4.724a3.966,3.966,0,0,1-3.96-3.96,3.925,3.925,0,0,1,.647-2.169H19.644Z" transform="translate(0 -158.37)"/><path class="c" d="M36.628,201.553v-2.471a.383.383,0,0,0-.382-.382H33.272a.379.379,0,0,0-.354.242,3.2,3.2,0,0,0,2.978,4.365h.479a.4.4,0,0,0,.293-.135.362.362,0,0,0,.079-.312A7.272,7.272,0,0,1,36.628,201.553Zm-.731,1a2.441,2.441,0,0,1-2.439-2.439,2.309,2.309,0,0,1,.088-.647h2.322v2.09a7.954,7.954,0,0,0,.065,1Z" transform="translate(-31.178 -189.548)"/><path class="c" d="M196.3,6.643a.33.33,0,1,0,.661,0,1.86,1.86,0,0,1,.219-.921,2.489,2.489,0,0,0,.284-1.215,2.489,2.489,0,0,0-.284-1.215,1.86,1.86,0,0,1-.219-.921,1.86,1.86,0,0,1,.219-.921,2.474,2.474,0,0,0,.284-1.215.33.33,0,1,0-.661,0,1.859,1.859,0,0,1-.219.921,2.475,2.475,0,0,0-.284,1.215,2.489,2.489,0,0,0,.284,1.215,1.859,1.859,0,0,1,.219.921,1.859,1.859,0,0,1-.219.921A2.489,2.489,0,0,0,196.3,6.643Z" transform="translate(-187.165 0)"/><path class="c" d="M250.1,6.643a.33.33,0,1,0,.661,0,1.86,1.86,0,0,1,.219-.921,2.489,2.489,0,0,0,.284-1.215,2.489,2.489,0,0,0-.284-1.215,1.86,1.86,0,0,1-.219-.921,1.86,1.86,0,0,1,.219-.921,2.474,2.474,0,0,0,.284-1.215.33.33,0,1,0-.661,0,1.859,1.859,0,0,1-.219.921,2.475,2.475,0,0,0-.284,1.215,2.489,2.489,0,0,0,.284,1.215,1.859,1.859,0,0,1,.219.921,1.859,1.859,0,0,1-.219.921A2.543,2.543,0,0,0,250.1,6.643Z" transform="translate(-238.461 0)"/><path class="c" d="M304,6.643a.33.33,0,1,0,.661,0,1.86,1.86,0,0,1,.219-.921,2.489,2.489,0,0,0,.284-1.215,2.489,2.489,0,0,0-.284-1.215,1.86,1.86,0,0,1-.219-.921,1.86,1.86,0,0,1,.219-.921,2.474,2.474,0,0,0,.284-1.215.33.33,0,1,0-.661,0,1.859,1.859,0,0,1-.219.921A2.476,2.476,0,0,0,304,2.371a2.49,2.49,0,0,0,.284,1.215,1.859,1.859,0,0,1,.219.921,1.859,1.859,0,0,1-.219.921A2.49,2.49,0,0,0,304,6.643Z" transform="translate(-289.853 0)"/></g></g></svg>
