<svg xmlns="http://www.w3.org/2000/svg" xmlns:xlink="http://www.w3.org/1999/xlink" viewBox="815 3115 24 22"><defs><style>.a{clip-path:url(#b);}.b{fill:#848484;}.c{fill:none;}</style><clipPath id="b"><rect x="815" y="3115" width="24" height="22"/></clipPath></defs><g id="a" class="a"><rect class="c" x="815" y="3115" width="24" height="22"/><g transform="translate(816.194 3115.381)"><path class="b" d="M16.138,6.99v-1.2a5.175,5.175,0,1,0-10.35,0v1.2A2.071,2.071,0,0,0,4.153,9.015V18.3a2.077,2.077,0,0,0,2.075,2.074H15.7A2.077,2.077,0,0,0,17.774,18.3V9.015A2.072,2.072,0,0,0,16.138,6.99Zm-9.657-1.2a4.482,4.482,0,1,1,8.963,0V6.941H6.482ZM17.08,18.3a1.381,1.381,0,0,1-1.38,1.38H6.228A1.382,1.382,0,0,1,4.847,18.3V9.015A1.377,1.377,0,0,1,6.154,7.64l.071,0H15.7l.072,0a1.378,1.378,0,0,1,1.307,1.376V18.3Z" transform="translate(0 0)"/><path class="b" d="M11.691,11.734a2.031,2.031,0,0,0-1.339,3.559v1.884a1.34,1.34,0,1,0,2.679,0V15.293a2.032,2.032,0,0,0-1.34-3.559Zm.789,3.112-.142.1v2.226a.646.646,0,1,1-1.292,0V14.951l-.142-.1a1.325,1.325,0,0,1-.551-1.079,1.338,1.338,0,1,1,2.677,0A1.319,1.319,0,0,1,12.48,14.846Z" transform="translate(-0.727 -1.468)"/></g></g></svg>
