<svg xmlns="http://www.w3.org/2000/svg" xmlns:xlink="http://www.w3.org/1999/xlink" viewBox="815 3006 24 22"><defs><style>.a{clip-path:url(#b);}.b{fill:#848484;}.c{fill:none;}</style><clipPath id="b"><rect x="815" y="3006" width="24" height="22"/></clipPath></defs><g id="a" class="a"><rect class="c" x="815" y="3006" width="24" height="22"/><g transform="translate(816.849 2945.969)"><g transform="translate(0 62.985)"><path class="b" d="M175.531,331.488a.49.49,0,0,1-.371-.174,4.925,4.925,0,0,0-7.533-.095.48.48,0,1,1-.724-.632,5.892,5.892,0,0,1,9,.113.483.483,0,0,1-.063.679A.5.5,0,0,1,175.531,331.488Z" transform="translate(-161.253 -319.749)"/><path class="b" d="M94.9,195.71a.482.482,0,0,1-.358-.161,8.979,8.979,0,0,0-13.29-.1.48.48,0,1,1-.706-.65,9.94,9.94,0,0,1,14.711.105.482.482,0,0,1-.357.8Z" transform="translate(-77.748 -187.334)"/><path class="b" d="M19.817,68.2a.476.476,0,0,1-.353-.155,12.79,12.79,0,0,0-9.364-4.1,12.626,12.626,0,0,0-9.271,4,.48.48,0,0,1-.7-.659,13.579,13.579,0,0,1,9.97-4.3,13.75,13.75,0,0,1,10.068,4.406.48.48,0,0,1-.352.805Z" transform="translate(0 -62.985)"/><path class="b" d="M254.658,446.48a1.759,1.759,0,1,1,1.757-1.758A1.757,1.757,0,0,1,254.658,446.48Zm0-2.559a.8.8,0,1,0,.8.8A.8.8,0,0,0,254.658,443.921Z" transform="translate(-244.511 -430.361)"/></g></g></g></svg>
