<svg xmlns="http://www.w3.org/2000/svg" xmlns:xlink="http://www.w3.org/1999/xlink" viewBox="815 3080 24 22"><defs><style>.a{clip-path:url(#b);}.b{fill:#848484;}.c{fill:none;}</style><clipPath id="b"><rect x="815" y="3080" width="24" height="22"/></clipPath></defs><g id="a" class="a"><rect class="c" x="815" y="3080" width="24" height="22"/><g transform="translate(789.351 3081.168)"><g transform="translate(29.054)"><path class="b" d="M100.554,398.508a.434.434,0,0,0-.434.434v1.736a.434.434,0,0,0,.868,0v-1.736A.434.434,0,0,0,100.554,398.508Z" transform="translate(-97.036 -381.214)"/><path class="b" d="M183.887,398.508a.434.434,0,0,0-.434.434v1.736a.434.434,0,0,0,.868,0v-1.736A.434.434,0,0,0,183.887,398.508Z" transform="translate(-176.752 -381.214)"/><path class="b" d="M267.22,398.508a.434.434,0,0,0-.434.434v1.736a.434.434,0,0,0,.868,0v-1.736A.434.434,0,0,0,267.22,398.508Z" transform="translate(-256.469 -381.214)"/><path class="b" d="M58.887,326.508a.434.434,0,0,0-.434.434v1.736a.434.434,0,1,0,.868,0v-1.736A.434.434,0,0,0,58.887,326.508Z" transform="translate(-57.177 -312.338)"/><path class="b" d="M142.22,326.508a.434.434,0,0,0-.434.434v1.736a.434.434,0,1,0,.868,0v-1.736A.434.434,0,0,0,142.22,326.508Z" transform="translate(-136.894 -312.338)"/><path class="b" d="M225.554,326.508a.434.434,0,0,0-.434.434v1.736a.434.434,0,1,0,.868,0v-1.736A.434.434,0,0,0,225.554,326.508Z" transform="translate(-216.611 -312.338)"/><path class="b" d="M308.887,326.508a.434.434,0,0,0-.434.434v1.736a.434.434,0,1,0,.868,0v-1.736A.434.434,0,0,0,308.887,326.508Z" transform="translate(-296.328 -312.338)"/><path class="b" d="M46,0a.434.434,0,0,0-.434.434V.868H41.613a6.561,6.561,0,0,0-6.538,6.119h-.394a.434.434,0,0,0-.434.434V8.592a7.072,7.072,0,0,0-4.626,4.189h-.133a.434.434,0,1,0,0,.868h13.4a.434.434,0,1,0,0-.868h-.133A7.072,7.072,0,0,0,38.13,8.592V7.421a.434.434,0,0,0-.434-.434h-.357a4.3,4.3,0,0,1,4.275-3.862h3.949v.434a.434.434,0,1,0,.868,0V.434A.434.434,0,0,0,46,0ZM37.262,7.855v.651H35.115V7.855Zm4.55,4.926H30.565a6.257,6.257,0,0,1,4.113-3.407H37.7A6.257,6.257,0,0,1,41.812,12.781Zm-.2-10.524a5.171,5.171,0,0,0-5.146,4.73h-.523a5.693,5.693,0,0,1,5.669-5.251h3.949v.521Z" transform="translate(-29.054)"/></g></g></g></svg>
