<svg xmlns="http://www.w3.org/2000/svg" xmlns:xlink="http://www.w3.org/1999/xlink" viewBox="640 2395 25 19"><defs><style>.a{clip-path:url(#b);}.b{fill:none;}.c{fill:#848484;}.d{fill:#fff;}</style><clipPath id="b"><rect x="640" y="2395" width="25" height="19"/></clipPath></defs><g id="a" class="a"><rect class="d" x="640" y="2395" width="25" height="19"/><g transform="translate(640 2395)"><path class="b" d="M110.921,42.7a4.229,4.229,0,1,1-4.221,4.229A4.238,4.238,0,0,1,110.921,42.7Z" transform="translate(-101.421 -40.583)"/><path class="c" d="M5.7,11.424a6.333,6.333,0,1,1,7.6,0A9.7,9.7,0,0,1,19,19.04H16.887a7.473,7.473,0,0,0-14.774,0H0A9.7,9.7,0,0,1,5.7,11.424Zm3.8-.848A4.229,4.229,0,1,0,5.279,6.347,4.238,4.238,0,0,0,9.5,10.576Z"/></g></g></svg>