<svg xmlns="http://www.w3.org/2000/svg" xmlns:xlink="http://www.w3.org/1999/xlink" viewBox="815 3043 24 22"><defs><style>.a{clip-path:url(#b);}.b{fill:#848484;}.c{fill:none;}</style><clipPath id="b"><rect x="815" y="3043" width="24" height="22"/></clipPath></defs><g id="a" class="a"><rect class="c" x="815" y="3043" width="24" height="22"/><g transform="translate(774.001 3044)"><path class="b" d="M60.016,0H45.909a.933.933,0,0,0-.932.932V19.873a.355.355,0,0,0,.355.355H60.593a.355.355,0,0,0,.355-.355V.932A.933.933,0,0,0,60.016,0Zm.222.932V3.549h-8.3V.71h8.082A.223.223,0,0,1,60.238.932ZM45.909.71h5.314V3.549H45.687V.932A.223.223,0,0,1,45.909.71Zm-.223,18.808V4.259H60.238V19.518Z" transform="translate(0)"/><path class="b" d="M82.255,113.736a6.53,6.53,0,1,0,6.53,6.53A6.538,6.538,0,0,0,82.255,113.736Zm0,12.351a5.82,5.82,0,1,1,5.82-5.82A5.827,5.827,0,0,1,82.255,126.087Z" transform="translate(-29.293 -108.354)"/><path class="b" d="M122.835,156.331a4.515,4.515,0,1,0,4.515,4.515A4.52,4.52,0,0,0,122.835,156.331Zm0,8.319a3.8,3.8,0,1,1,2.957-6.2,4.006,4.006,0,0,0,0,4.782A3.8,3.8,0,0,1,122.835,164.651Zm3.377-2.056a3.3,3.3,0,0,1,0-3.5,3.791,3.791,0,0,1,0,3.5Z" transform="translate(-69.872 -148.933)"/><path class="b" d="M256.133,23.27A1.136,1.136,0,1,0,255,22.135,1.137,1.137,0,0,0,256.133,23.27Zm0-1.562a.426.426,0,1,1-.426.426A.426.426,0,0,1,256.133,21.709Z" transform="translate(-200.081 -20.005)"/><path class="b" d="M311.6,23.27a1.136,1.136,0,1,0-1.136-1.136A1.137,1.137,0,0,0,311.6,23.27Zm0-1.562a.426.426,0,1,1-.426.426A.426.426,0,0,1,311.6,21.709Z" transform="translate(-252.924 -20.005)"/></g></g></svg>
