<svg xmlns="http://www.w3.org/2000/svg" xmlns:xlink="http://www.w3.org/1999/xlink" viewBox="640 2373 25 19"><defs><style>.a{clip-path:url(#b);}.b{fill:#848484;}.c{fill:#fff;}</style><clipPath id="b"><rect x="640" y="2373" width="25" height="19"/></clipPath></defs><g id="a" class="a"><rect class="c" x="640" y="2373" width="25" height="19"/><g transform="translate(640 2308.835)"><g transform="translate(0 64.165)"><path class="b" d="M13.331,75.592a6.348,6.348,0,1,0-7.618,0A9.721,9.721,0,0,0,0,83.21H2.116a7.494,7.494,0,0,1,14.812,0h2.116a9.721,9.721,0,0,0-5.713-7.618Zm-3.809-.846a4.232,4.232,0,1,1,4.232-4.232,4.245,4.245,0,0,1-4.232,4.232Z" transform="translate(0 -64.165)"/><path class="b" d="M332.955,94.935a6.218,6.218,0,0,0,1.375-3.809,6.422,6.422,0,0,0-7.089-6.348,4.371,4.371,0,0,1,.741,1.164,3.763,3.763,0,0,1,.423.952,4.293,4.293,0,0,1,3.809,4.232,4.416,4.416,0,0,1-1.693,3.386.962.962,0,0,0-.423.846,1.03,1.03,0,0,0,.846,1.058,4.3,4.3,0,0,1,3.386,4.126h2.116a6.358,6.358,0,0,0-3.491-5.607Z" transform="translate(-311.054 -83.72)"/></g></g></g></svg>